<?xml version="1.0" encoding="UTF-8"?>
<svg xmlns="http://www.w3.org/2000/svg" viewBox="0 0 469.71 399.41">
  <g id="Warstwa_3">
    <path d="m458.37,233.49l-242.24,137.27c-10.63,6.02-30.67,5.64-44.76-.86L17.59,298.94c-14.09-6.5-16.89-16.65-6.26-22.68l242.24-137.27c10.63-6.02,30.67-5.64,44.76.86l153.78,70.96c14.09,6.5,16.89,16.65,6.26,22.68Z" fill="#a48aff" stroke="#0d0f2b" stroke-linecap="round" stroke-linejoin="round" stroke-width="9.77"/>
    <path d="m458.37,213.95l-242.24,137.27c-10.63,6.02-30.67,5.64-44.76-.86L17.59,279.4c-14.09-6.5-16.89-16.65-6.26-22.68L253.57,119.45c10.63-6.02,30.67-5.64,44.76.86l153.78,70.96c14.09,6.5,16.89,16.65,6.26,22.68Z" fill="#a48aff" stroke="#0d0f2b" stroke-linecap="round" stroke-linejoin="round" stroke-width="9.77"/>
    <path d="m458.37,194.41l-242.24,137.27c-10.63,6.02-30.67,5.64-44.76-.86L17.59,259.86c-14.09-6.5-16.89-16.65-6.26-22.68L253.57,99.91c10.63-6.02,30.67-5.64,44.76.86l153.78,70.96c14.09,6.5,16.89,16.65,6.26,22.68Z" fill="#a48aff" stroke="#0d0f2b" stroke-linecap="round" stroke-linejoin="round" stroke-width="9.77"/>
  </g>
  <g id="Warstwa_1">
    <g>
      <g>
        <path d="m88.56,214.1c-2.57,3.99-3.13,10.54,1.04,20.69,12.09,29.37,45.42,18.12,45.42,18.12L281.82,49.31c-45.19-31.97-88.06,2.6-88.06,2.6" fill="#ed90ff" stroke="#3a0040" stroke-linecap="round" stroke-linejoin="round" stroke-width="9.77"/>
        <path d="m223.13,79.4s-3.59-30.27-32.09-27.3c-35.91,3.73-54.34,40.09-54.34,40.09h-.07c-28,1.12-50.14,48.78-30.94,52.16h.06c-34.25,3.56-25.44,68.41-17.18,69.75" fill="#ed90ff" stroke="#3a0040" stroke-linecap="round" stroke-linejoin="round" stroke-width="9.77"/>
      </g>
      <path d="m106.14,212.08c-.99-5.92-28.63-6.66-16.53,22.7,12.09,29.37,45.42,18.12,45.42,18.12L281.82,49.31c-45.19-31.97-88.06,2.6-88.06,2.6" fill="none" stroke="#3a0040" stroke-linecap="round" stroke-linejoin="round" stroke-width="9.77"/>
      <path d="m88.5,214.19c-9.14-1.48-18.88-80.84,29.73-68.75" fill="none" stroke="#3a0040" stroke-linecap="round" stroke-linejoin="round" stroke-width="9.77"/>
      <path d="m105.68,144.35c-23.69-4.18,15.57-75.78,51.11-44.13" fill="none" stroke="#3a0040" stroke-linecap="round" stroke-linejoin="round" stroke-width="9.77"/>
      <path d="m136.69,92.19s18.44-36.36,54.34-40.09c28.5-2.96,32.09,27.3,32.09,27.3" fill="none" stroke="#3a0040" stroke-linecap="round" stroke-linejoin="round" stroke-width="9.77"/>
    </g>
    <path d="m387.15,147.82c-.51,6.27-1.8,12.48-4.4,18.21-2.31,5.12-5.16,9.16-8.28,12.33v.02c17,52.89-42.16,56.4-42.16,56.4-2.75,5.82-6.96,10.9-12.37,14.61-21.86,15.06-40.66,4.98-40.66,4.98-17.6,36.77-59,25.65-55.72,18.68-.31.31-.64.64-1.02,1-4.53,4.32-8.58,5.72-13.5,7.33-23.31,7.58-86.34,8.77-74.65-60.84.31-2.07.7-4.16,1.13-6.25,3.03-15.06,8.6-30.56,16.08-45.78l.02-.02s.02,0,.02-.02c10.45-21.28,24.66-41.99,40.87-60.08,0,0,.02,0,.04-.02,26.81-29.93,59.16-52.69,89.27-59.06,15.81-3.36,31.01-2.19,44.45,4.83,16.8,8.77,25.24,23.21,27.29,36.26h.02c1.02.25,37.43,9.69,33.57,57.42Z" fill="#ed90ff" stroke="#3a0040" stroke-linecap="round" stroke-linejoin="round" stroke-width="9.77"/>
    <g>
      <path d="m248.78,96.32s50.84,5.2,34.55,55.05c0,0,15.24-7.28,43.44,4.94,21.96,7.22,27.32-13.33,27.32-13.33" fill="none" stroke="#3a0040" stroke-linecap="round" stroke-linejoin="round" stroke-width="9.77"/>
      <path d="m283.33,151.37s-19.04,13.48-27.15,26.98c0,0-4.94-10.61-14.31-13.49,0,0,8.39-17.86-11.11-28.79" fill="none" stroke="#3a0040" stroke-linecap="round" stroke-linejoin="round" stroke-width="9.77"/>
      <path d="m256.19,178.35s18.02,46.81-27.15,41.99" fill="none" stroke="#3a0040" stroke-linecap="round" stroke-linejoin="round" stroke-width="9.77"/>
      <path d="m241.87,164.86s-9.38,19.68-31.84,6.99" fill="none" stroke="#3a0040" stroke-linecap="round" stroke-linejoin="round" stroke-width="9.77"/>
      <path d="m223.44,206.57s-39.68-8.8-22.84,26.25c0,0-25.91.25-16.78,22.21" fill="none" stroke="#3a0040" stroke-linecap="round" stroke-linejoin="round" stroke-width="9.77"/>
      <path d="m286.54,76.59c9.38-3.95,50.35,13.8,28.13,44.92" fill="none" stroke="#3a0040" stroke-linecap="round" stroke-linejoin="round" stroke-width="9.77"/>
      <path d="m212.76,251.07c9.24-1.25,13.73,6.1,14.05,10.49.43,6.49-.51,8.67-3.24,11.49" fill="none" stroke="#3a0040" stroke-linecap="round" stroke-linejoin="round" stroke-width="9.77"/>
      <path d="m353.58,90.4c1.82,11.55-1.35,22-8.07,26.41" fill="none" stroke="#3a0040" stroke-linecap="round" stroke-linejoin="round" stroke-width="9.77"/>
      <path d="m336.88,188.88s22.21,5.16,37.59-10.51" fill="none" stroke="#3a0040" stroke-linecap="round" stroke-linejoin="round" stroke-width="9.77"/>
      <path d="m300.36,184.68l1.76-.12c3.44-.25,6.56,1.93,7.6,5.24,7.4,23.82-22.94,31.4-22.94,31.4-.72,13.95-3.5,24.79-7.5,33.17" fill="none" stroke="#3a0040" stroke-linecap="round" stroke-linejoin="round" stroke-width="9.77"/>
      <path d="m335.96,220.34c-.29,5.04-1.54,9.96-3.65,14.44" fill="none" stroke="#3a0040" stroke-linecap="round" stroke-linejoin="round" stroke-width="9.77"/>
      <path d="m106.14,176.04c26.16,7.4,29.37,38.25,29.37,38.25,0,0,31.83-33.32,67.74-24.61" fill="none" stroke="#3a0040" stroke-linecap="round" stroke-linejoin="round" stroke-width="9.77"/>
      <path d="m136.74,125.45c16.04,10.86,14.85,43.08,14.85,43.08l.02-.02.04-.04c1.64-1.35,32.92-26.71,67.89-16.98" fill="none" stroke="#3a0040" stroke-linecap="round" stroke-linejoin="round" stroke-width="9.77"/>
      <path d="m183.63,84.24c10.12,11.35,8.89,24.15,8.89,24.15l.04-.02c.84-.37,18.93-8.44,38.22-2.91" fill="none" stroke="#3a0040" stroke-linecap="round" stroke-linejoin="round" stroke-width="9.77"/>
    </g>
  </g>
</svg>